<svg xmlns="http://www.w3.org/2000/svg" viewBox="0 0 605.38 473.16"><defs><style>.cls-1{fill:#30512b;}.cls-2{fill:#726658;}.cls-3{fill:#a6ba4b;}.cls-4{fill:#859f4d;}.cls-5{fill:#58595b;}.cls-6{fill:#3d3f40;}.cls-7{fill:#403a30;}.cls-8{fill:#93b651;}.cls-9{fill:#6f9a4c;}</style></defs><title>ELEM_bonzai</title><g id="Layer_2" data-name="Layer 2"><g id="Layer_1-2" data-name="Layer 1"><path class="cls-1" d="M359.56,67.38a28.81,28.81,0,0,0-23,11.59,28.83,28.83,0,0,0-47.2-.06,28.66,28.66,0,0,0-35.19,9.38,28.62,28.62,0,0,0-39.55,5.6,28.65,28.65,0,0,0-12.75-3.08,29,29,0,1,0,22.66,46.78,28.5,28.5,0,0,0,36.1-8.88A28.73,28.73,0,0,0,301.06,122a28.61,28.61,0,0,0,34.87-9,28.94,28.94,0,1,0,23.63-45.61Z"/><circle class="cls-1" cx="493.17" cy="117.26" r="28.96"/><path class="cls-1" d="M116.21,140.21a30.11,30.11,0,0,0-28.15,41.21,30.09,30.09,0,0,0-6.8,56c0,.5-.15,1-.15,1.5A23,23,0,1,0,122,224.58a29.21,29.21,0,0,0,1.39-24.8,30.22,30.22,0,0,0-7.22-59.57Z"/><path class="cls-2" d="M529.2,141.11c-13.68,8-28.31,7.42-43.37,3.5-.11,0-.32-.11-.42-.11-8.59-2.23-17.28-5.09-26-6.89l2.33-1.91L482.44,119l-6.89-8.38-31.38,25.55c-.42,0-1-.11-1.38-.11a72.84,72.84,0,0,0-13.47,2.23c-6.68,1.8-13.25,4-20,5.62a99.19,99.19,0,0,1-62.35-5.94c-6.47-2.76-12.62-6.15-18.87-9.33a4.92,4.92,0,0,0,.53-1.06h.11c4.67-8.69,8-15.59,8-15.59l-8.48-1s-2.54,6-6.79,14.1a.39.39,0,0,1-.11.32c-.1-.11-.21-.11-.32-.21a54.61,54.61,0,0,0-11.66-3.39,35.34,35.34,0,0,0-16.65.74,23.53,23.53,0,0,0-13.25,10.5,28.86,28.86,0,0,0-2.86,5.73c-1.59-1.59-3.29-3.29-5.2-5.09-8-7.42-18.24-14.84-27.14-14.84-12.83,0-25.13-5.2-25.24-5.2l-4.24,9.86a74.74,74.74,0,0,0,14,4.35,76.55,76.55,0,0,0,15.48,1.8c7.32,0,20.89,12.09,29.48,21.95a6.52,6.52,0,0,1-.11,1.38,38.09,38.09,0,0,0-6.89-3.18,15.46,15.46,0,0,0-2.86-.85,11.51,11.51,0,0,0-3.71-.53c-2.76.11-3.39.21-5.2.32-12.41,1.06-26.83,2.33-42.31,3.6-2.86.32-5.72.53-8.59.74a134.45,134.45,0,0,0-15.9,2.12,78.76,78.76,0,0,0-24.49,9.65c-1.59,1-3.18,1.91-4.67,3a99.08,99.08,0,0,0-11.24,9.33c-1.48,1.38-2.86,2.65-4.13,3.92-5.94,5.41-12,10.6-17.92,15.37-6,4.56-12.09,9-17.92,11.45a13.05,13.05,0,0,1-4,1.17c-1.49.21-3.18.1-5.09.42a36,36,0,0,0-10.39,3.82C76.66,219.68,69.13,227,63.62,232c-5.3,5.09-8.16,8.27-8.16,8.27l4,3.71s2.76-3,8.16-7.63S80.9,224.77,91.4,219.47a32.56,32.56,0,0,1,7.85-2.65c1.38-.21,3.18-.11,5.09-.32a1.81,1.81,0,0,0,.74-.11,21.21,21.21,0,0,0,5.41-1.27c7.42-3,13.78-7.32,20.25-11.88s12.72-9.86,19.08-15.16c6.36-5.62,12-10.6,18.87-14.21a70.54,70.54,0,0,1,21.63-7.74c7-1.27,15.69-1.17,23.22-1.7,15.59-.74,30.11-1.38,42.52-2,1.27,0,3.71-.21,4-.11a12.78,12.78,0,0,1,1.8.64,39.7,39.7,0,0,1,5.94,3.07c3,1.8,5.41,3.61,7.74,5.3A163.54,163.54,0,0,0,283,193.39c7.32,18.66,12.09,41.35,27.25,55.67,18.24,17.28,55.56,10.28,79.1,10.92,4.35.11,9.12.32,12.4,3.18,2.33,2,3.5,5,4.56,8l-.42-.11c-3.18,12.51-15.48,45.17-34.57,45.81l.42,10.92c7.63-.32,14.1-3.6,19.62-8.38l31.6-.53c3.08,9,5.51,15.8,5.51,15.8s15-5.73,25.34-9.65c5,4.45,13.15,7.32,16.12,8.16L473,322.74c-4.88-1.49-10.07-4-12-5.73a.39.39,0,0,0-.11-.32c.42-.85,1-1.8,1.48-2.86,1.38-2.65,3.08-6,4.56-9.65,7.42,7.74,15,14.74,21.84,19.4l3.08-4.45c-7.1-4.88-15.06-12.41-22.9-20.78,1.91-6.57,2.33-13.89-1.17-21-6-12.09-18.77-13.15-25.66-12.83a18.92,18.92,0,0,0-1-2.23C435,249.58,425.5,238,412.67,232.09c-19.3-8.91-41.78-3.82-63-2.23-7.21.53-15.16.42-20.89-4.13-4.13-3.29-6.36-8.38-8.38-13.36-5.94-14.1-11.77-28.31-17.71-42.52,2.44-4.24,5.94-10.18,10.29-16.33,1.48-2,2.86-4.13,4.24-6.36h.11c24,11,49.94,21.21,76.13,17.71,18.24-2.33,35.31-11.24,53.65-12.19,15.16-.74,29.9,3.92,45,6a72,72,0,0,0,10.81.85c.11.11.11,0,.11,0a50.35,50.35,0,0,0,20.68-3.07C531.32,153.52,537.15,148.43,529.2,141.11Zm-71,141.13a15.09,15.09,0,0,1,1.38,5.62c-3.5-4-6.79-8.06-10-12C452.86,276.73,456.25,278.42,458.16,282.24Zm.53,12.94a51.09,51.09,0,0,1-3,8c-2.33-6.26-4.77-13.15-7-19.62C451.9,287.33,455.19,291.25,458.69,295.18Zm-64.36,21.21c7.42-7.53,12.72-17.6,16.33-26.08C409.91,299.52,406.31,311,394.33,316.38ZM297.73,157.87c-1.17-3.08-1.91-6.36-.53-9.22,2.12-4.45,7.21-5.09,12.41-4A69.66,69.66,0,0,1,297.73,157.87Z"/><path class="cls-3" d="M497.64,315.67H290.17a55.64,55.64,0,0,0-55.64,55.64H553.28A55.64,55.64,0,0,0,497.64,315.67Z"/><path class="cls-4" d="M247,336.63a55.12,55.12,0,0,0-12.45,34.68H553.28a55.22,55.22,0,0,0-10.44-32.25C441.67,350.75,342.86,350.89,247,336.63Z"/><polygon class="cls-5" points="572.83 370.4 570.99 376.3 543.83 463.88 243.96 463.88 216.8 376.3 214.96 370.4 572.83 370.4"/><polygon class="cls-6" points="572.83 370.4 570.99 376.3 216.8 376.3 214.96 370.4 572.83 370.4"/><rect class="cls-5" x="256.67" y="433.59" width="40.42" height="39.57"/><rect class="cls-5" x="490.73" y="433.59" width="40.41" height="39.57"/><rect class="cls-5" x="199.99" y="355.31" width="387.84" height="15.13"/><path class="cls-7" d="M143.57,181.09c1.27-1.27,2.65-2.54,4.13-3.92a49.34,49.34,0,0,1-39.23,35.73,35.28,35.28,0,0,1-3.39,3.5,1.81,1.81,0,0,1-.74.11c-1.91.21-3.71.11-5.09.32a32.56,32.56,0,0,0-7.85,2.65c-10.5,5.3-18.45,12.19-23.75,16.86S59.49,244,59.49,244l-4-3.71s2.86-3.18,8.16-8.27c5.51-5,13-12.3,24.6-18.66a36,36,0,0,1,10.39-3.82c1.91-.32,3.61-.21,5.09-.42a13.05,13.05,0,0,0,4-1.17c5.83-2.44,11.88-6.89,17.92-11.45C131.59,191.69,137.63,186.5,143.57,181.09Z"/><path class="cls-7" d="M188.1,155.22A134.45,134.45,0,0,1,204,153.1a51,51,0,0,1-36.79,15.48,43.61,43.61,0,0,1-8.27-.74c1.49-1.06,3.08-2,4.67-3A78.76,78.76,0,0,1,188.1,155.22Z"/><path class="cls-7" d="M244.19,118.85c8.91,0,19.19,7.42,27.14,14.84h-1.06a71,71,0,0,1-33.93-8.59,59.2,59.2,0,0,1-7.63,2.76,74.74,74.74,0,0,1-14-4.35l4.24-9.86C219.06,113.65,231.36,118.85,244.19,118.85Z"/><path class="cls-7" d="M309.29,121.82a69.45,69.45,0,0,1-29.9,11.24,23.53,23.53,0,0,1,13.25-10.5A35.34,35.34,0,0,1,309.29,121.82Z"/><path class="cls-7" d="M328.17,111l8.48,1s-3.29,6.89-8,15.59h-.11c-2.44-.74-4.88-1.48-7.21-2.44C325.62,117,328.17,111,328.17,111Z"/><path class="cls-7" d="M475.55,110.58l6.89,8.38-20.68,16.75a30.67,30.67,0,0,1-4-2.33,29.26,29.26,0,0,1-18.56,6.68,28,28,0,0,1-9.86-1.8A72.84,72.84,0,0,1,442.78,136c.42,0,1,.11,1.38.11Z"/><path class="cls-7" d="M523.68,156.49A50.35,50.35,0,0,1,503,159.56s0,.11-.11,0a53.39,53.39,0,0,1-17.07-15c15.06,3.92,29.69,4.45,43.37-3.5C537.15,148.43,531.32,153.52,523.68,156.49Z"/><path class="cls-8" d="M605.38,129.29a29.68,29.68,0,0,0-29.91-29.45c-.41,0-.76.21-1.17.23-5-19.84-22.35-34.85-44-34.85a45.86,45.86,0,0,0-34.41,15.85s-.1,0-.14,0a27.36,27.36,0,0,0-16.94-6.24,27.75,27.75,0,0,0-19.61,8.06,18.34,18.34,0,0,0-3.89-.77,18.82,18.82,0,0,0-16.51,10,19.16,19.16,0,0,0-6.56,1.3,38.74,38.74,0,0,0,4.52-17.51c0-20.18-15.41-36.17-35.13-38.94A59.48,59.48,0,0,0,319.85,8.59c-6.8-5-14.85-8.59-24-8.59-7.55,0-14.22,2.57-20.28,6.1-1.75-.15-3.45-.52-5.24-.52a59.66,59.66,0,0,0-45.41,21c-4.07-1.08-8-2.48-12.47-2.48-24.15,0-43.3,17.59-47.22,40.27a40.23,40.23,0,0,0-20.8,21.27c-10.56,7.23-17.92,18.67-17.92,32.3,0,3.81,1.19,7.25,2.2,10.75a28.89,28.89,0,0,0-13.19-3.47c-2,0-3.77.75-5.67,1.13-3.35-.89-6.62-2-10.26-2-13.9,0-25.55,7.37-32.77,17.93A39.53,39.53,0,0,0,35.41,162.1c-.59,0-1.1-.34-1.7-.34-17.93,0-32.47,14.31-32.47,32,0,6.47,2.44,12.14,5.79,17.18C3,217.1,0,224.05,0,232c0,21.86,18,39.59,40.21,39.59,1.5,0,2.78-.68,4.24-.84a32.57,32.57,0,0,0,24.22,11c11,0,20.26-5.68,26.2-13.87a19.24,19.24,0,0,0,13.39,5.42,18.89,18.89,0,1,0-9.13-35.17,32.1,32.1,0,0,0-20.5-19,39.12,39.12,0,0,0,24.05-16.2,39.13,39.13,0,0,0,35.61-31.59c3.81-4.86,6.47-10.67,6.47-17.28,0-1.45-.63-2.7-.84-4.1,6.67,4.72,14.42,8.09,23.27,8.09A40.57,40.57,0,0,0,204.77,133a39.56,39.56,0,0,0,12.64-13.67,47.92,47.92,0,0,0,19.38-6.34,60,60,0,0,0,74.16-5.78A59.74,59.74,0,0,0,370,114.84c5.55,9.37,15.43,16,27.24,16,10.2,0,18.88-5,24.74-12.31a18.79,18.79,0,0,0,33.67,1,18.47,18.47,0,0,0,2-.39,27.33,27.33,0,0,0,21.1,10.24c2,0,3.82-.73,5.72-1.14a29.52,29.52,0,0,0,6.39,5A45.38,45.38,0,0,0,513.71,153a29.89,29.89,0,0,0,26.43,16.18c1.48,0,2.74-.63,4.16-.83a18.58,18.58,0,0,0,33.36,9.35,18.56,18.56,0,0,0,25.25-17.45A18.28,18.28,0,0,0,598.05,148,28.73,28.73,0,0,0,605.38,129.29Z"/><path class="cls-9" d="M122.12,254.36a13.48,13.48,0,0,0-20.47-11.64l-5.31,2.89L94.16,240A26.83,26.83,0,0,0,77,224.16l-18.63-5.92,19.07-4.3a33.79,33.79,0,0,0,20.84-14l1.43-2.09,2.53-.2a33.84,33.84,0,0,0,30.83-27.35l.24-1.24.78-1c3.54-4.5,5.33-9.23,5.33-14a7.1,7.1,0,0,0-.25-1,18.77,18.77,0,0,1-.52-2.28l-1.05-6.92c-15.16,9.53-38.29,18.19-41,25.74-3.92,11-31.33,20.36-52.47,24.28s-16.45,25.84-16.45,25.84c4,21.07-4,33.76-8.67,39.17A36,36,0,0,0,40.71,266h.47a16.39,16.39,0,0,1,2.67-.58l2.7-.3,1.82,2a27.21,27.21,0,0,0,20.29,9.23c8.54,0,16.52-4.26,21.91-11.68l3.58-4.93L98.55,264a13.91,13.91,0,0,0,9.7,3.93A13.74,13.74,0,0,0,122.12,254.36Z"/><path class="cls-9" d="M232.11,78.71c-8.62,18.79-44.64,23.49-44.64,23.49-2.35,20.36-36.81,28.19-36.81,28.19-.8,3.8-4.47,7.49-9.54,11.07L147,145.6c6.77,4.78,13.38,7.11,20.21,7.11a35.16,35.16,0,0,0,32.69-21.77l.6-1.46,1.3-.89a34.46,34.46,0,0,0,11-11.85l1.33-2.44,2.77-.29a42.39,42.39,0,0,0,17.27-5.64l2.87-1.68,2.75,1.85a54.75,54.75,0,0,0,67.62-5.28l3.25-3,3.53,2.66A54.37,54.37,0,0,0,347,114.09a54.94,54.94,0,0,0,21-4.15l4.25-1.75,2.33,3.94a26.34,26.34,0,0,0,22.68,13.36c8,0,15.27-3.67,20.6-10.31l5.33-6.65,3.61,7.71a13.73,13.73,0,0,0,12.36,7.88A13.46,13.46,0,0,0,451,116.9l1.35-2.69,3-.08,1.22-.29,3.25-.39,1.85,2.23a22,22,0,0,0,17,8.32,11.19,11.19,0,0,0,2.63-.52l2-.5,3-.65,2.06,2.26a24.73,24.73,0,0,0,5.28,4.07l1.1.68.66,1.12A40.12,40.12,0,0,0,515.6,148l1.86.7.93,1.77a24.67,24.67,0,0,0,21.74,13.35,6.94,6.94,0,0,0,1.1-.26,19,19,0,0,1,2.31-.52l5.44-.79.59,5.47a13.29,13.29,0,0,0,23.92,6.64l2.34-3,3.57,1.25a13.27,13.27,0,0,0,18.2-12.46,13.14,13.14,0,0,0-3.52-8.67L591,148.09l3-3.51a23.74,23.74,0,0,0,6.06-15.28,23.44,23.44,0,0,0-.35-3.41c-23,21.7-52,2.17-52,2.17-18.8,9.4-56.39-18.8-56.39-18.8-9.4,2.35-25.84-9.4-25.84-9.4l-18.8,7.83c-7,3.13-32.89-3.13-32.89-3.13-21.93,4.7-39.94-24.28-39.94-24.28-14.88,13.31-65.78-9.4-65.78-9.4C294,88.89,232.11,78.71,232.11,78.71Z"/></g></g></svg>