<svg xmlns="http://www.w3.org/2000/svg" xmlns:xlink="http://www.w3.org/1999/xlink" viewBox="0 0 514.92 169.03"><defs><style>.cls-1{fill:none;}.cls-2{clip-path:url(#clip-path);}.cls-3{fill:#eab473;}.cls-4{fill:#666;}.cls-5{fill:gray;}.cls-6{fill:#ffe5c0;}.cls-7{fill:#efeec2;}.cls-8{fill:#ede694;}.cls-9{fill:#a56931;}.cls-10{fill:#1a1a1a;}.cls-11{fill:#fff;}</style><clipPath id="clip-path"><polygon class="cls-1" points="111.08 96.82 56.54 128.32 2 96.82 2 33.81 56.54 2.31 111.08 33.81 111.08 96.82"/></clipPath></defs><title>icon_bernadette</title><g id="Layer_2" data-name="Layer 2"><g id="Layer_1-2" data-name="Layer 1"><g class="cls-2"><polygon class="cls-3" points="31.9 94.63 23.57 105.97 19.93 137.61 23.01 167.57 31.03 167.2 30.85 136.49 47.07 90.02 31.9 94.63"/><polygon class="cls-4" points="85.64 63.88 82.93 26.89 56.61 15.29 30.04 27.44 30.58 53.34 64.64 83.78 85.64 63.88"/><polygon class="cls-5" points="26.48 60.61 48.69 86.11 56.61 52.65 56.61 15.29 30.04 27.44 26.48 60.61"/><polygon class="cls-6" points="47.75 84.84 48.16 94.23 56.48 102.96 56.48 90.42 47.75 84.84"/><polygon class="cls-6" points="33.58 51.98 34.94 77.05 56.48 90.42 56.48 31.25 36.04 35.62 33.58 51.98"/><polygon class="cls-3" points="56.32 56.75 53.48 67.3 56.48 71.32 56.32 56.75"/><polygon class="cls-6" points="65.07 84.84 64.66 94.23 56.35 102.96 56.35 90.42 65.07 84.84"/><polygon class="cls-6" points="79.25 51.98 77.88 77.05 56.35 90.42 56.35 31.25 76.79 35.62 79.25 51.98"/><polygon class="cls-3" points="63.54 75.45 56.37 75.66 56.33 79.66 63.54 75.45"/><polygon class="cls-5" points="33.58 51.98 41.33 35.81 56.74 31.71 62.78 39 79.25 51.98 77.33 35.71 56.61 20.9 36.04 35.62 33.58 51.98"/><polygon class="cls-4" points="56.48 20.98 36.04 35.62 33.58 51.98 49.88 39 56.74 31.71 56.48 20.98"/><polygon class="cls-7" points="56.66 102.8 50.64 94.76 47.07 90.02 43.33 91.15 35.21 108.05 30.85 117.86 37.58 129.22 32.48 159.84 56.66 169.03 56.66 102.8"/><polygon class="cls-3" points="81.17 94.46 89.49 105.8 93.14 137.43 90.04 167.37 82.03 167.03 82.21 136.3 65.99 89.82 81.17 94.46"/><polygon class="cls-8" points="56.41 102.63 65.99 89.82 69.88 90.78 77.84 107.86 82.21 117.69 75.48 129.05 80.58 159.64 56.66 169.03 56.41 102.63"/><polygon class="cls-4" points="51.69 50.04 48.54 48.86 41.32 49.02 38.92 51.52 42.56 50.08 47.32 49.71 51.69 50.04"/><polygon class="cls-4" points="60.54 50.04 63.71 48.86 70.92 49.02 73.32 51.52 69.67 50.08 64.91 49.71 60.54 50.04"/><polygon class="cls-9" points="44.54 60.09 43.64 57.34 45.98 55.65 48.32 57.34 47.42 60.09 44.54 60.09"/><polygon class="cls-9" points="65.95 60.09 65.05 57.34 67.39 55.65 69.73 57.34 68.83 60.09 65.95 60.09"/><polygon class="cls-3" points="49.12 75.02 56.3 75.28 56.3 79.28 49.12 75.02"/><path class="cls-10" d="M78.09,55.73l-1.6-.21c-9-1.44-12.88-.06-16.42.63a23.41,23.41,0,0,1-3.56.56v0h-.17v0a23.31,23.31,0,0,1-3.55-.56c-3.54-.69-7.43-2.08-16.42-.63l-1.6.21-.06,2.52s.75,0,1.28,1.87l1.07,5.56S38,70.05,44,70.15c0,0,6.14.87,8.23-2.29,0,0,1.76-1.56,2.61-5.83,0,0,.2-1.56,1.56-1.73C57.79,60.48,58,62,58,62c.86,4.27,2.62,5.83,2.62,5.83,2.1,3.15,8.24,2.29,8.24,2.29,6-.1,7-4.48,7-4.48l1.07-5.56c.54-1.83,1.29-1.87,1.29-1.87ZM53.68,62.61c-.39,3.54-4.39,6.54-8.73,6.25-4.6-.33-7.24-3-7.24-6.38,0-1.69-.23-4.06,1.28-5.17s4.44-1,6.6-1c2.31,0,5.45.54,7.12,1.71C54.13,59,53.85,61,53.68,62.61Zm21.47-.13c0,3.37-2.64,6.06-7.24,6.38-4.34.29-8.34-2.71-8.72-6.25-.18-1.58-.46-3.58,1-4.56,1.68-1.17,4.82-1.71,7.13-1.71,2.15,0,5.15-.08,6.6,1S75.15,60.79,75.15,62.48Z"/><polygon class="cls-3" points="47.88 86.84 55.28 95.21 56.41 102.63 44.1 90.94 47.88 86.84"/><polygon class="cls-3" points="65.05 86.75 57.45 95.25 56.33 102.67 68.97 90.61 65.05 86.75"/><path class="cls-11" d="M56.54,130.63,0,98V32.65L56.54,0l56.54,32.65V98ZM4,95.67,56.54,126l52.54-30.34V35L56.54,4.62,4,35Z"/></g><path class="cls-11" d="M134.45,92v-4.6l5.91-1V44.79l-5.91-1v-4.6h23.13q8.27,0,12.93,3.57t4.66,10.7a9.77,9.77,0,0,1-2.23,6.29A13.19,13.19,0,0,1,167,63.84a12.21,12.21,0,0,1,7.48,4.68A13.82,13.82,0,0,1,177.27,77q0,7.26-4.71,11.09T159.81,92ZM147.5,61.57h11.93a9.27,9.27,0,0,0,6.22-2.28,7.73,7.73,0,0,0,2.38-6q0-4.27-2.68-6.39t-7.76-2.12H147.5Zm0,24.76h12.33q4.89,0,7.6-2.41a8.66,8.66,0,0,0,2.7-6.82,10.81,10.81,0,0,0-2.27-7.27q-2.27-2.64-6.94-2.64H147.5Z"/><path class="cls-11" d="M183.9,73.1v-1.6a20.12,20.12,0,0,1,5-13.94A15.36,15.36,0,0,1,200.69,52q7.9,0,12,4.79t4.08,12.76V74H191.3l-.11.18a15.44,15.44,0,0,0,2.86,9.27,9.13,9.13,0,0,0,7.72,3.63,18,18,0,0,0,6.36-1,14.62,14.62,0,0,0,4.73-2.84l2.79,4.64a17.12,17.12,0,0,1-5.57,3.45,22.12,22.12,0,0,1-8.32,1.4q-8.19,0-13-5.46T183.9,73.1Zm7.54-4.89.07.18h18.09v-.94a10.89,10.89,0,0,0-2.25-7q-2.25-2.82-6.67-2.82a7.75,7.75,0,0,0-6.13,3A14.27,14.27,0,0,0,191.44,68.21Z"/><path class="cls-11" d="M223.79,92v-4.6l5.91-1v-28l-5.91-1v-4.6h12.29l.69,5.69a13.7,13.7,0,0,1,4.12-4.71,9.56,9.56,0,0,1,5.6-1.7,12.2,12.2,0,0,1,1.72.13,9.61,9.61,0,0,1,1.36.27L248.62,59l-4.06-.22a8.18,8.18,0,0,0-4.75,1.32,8.56,8.56,0,0,0-3,3.71V86.34l5.91,1V92Z"/><path class="cls-11" d="M253.44,92v-4.6l5.91-1v-28l-5.91-1v-4.6h12.29l.51,5.84a14.24,14.24,0,0,1,4.91-4.84A13.11,13.11,0,0,1,277.88,52q6.34,0,9.83,3.71t3.48,11.46V86.34l5.91,1V92h-19v-4.6l5.91-1v-19q0-5.18-2-7.35t-6.25-2.17a10.08,10.08,0,0,0-5.46,1.48,10.85,10.85,0,0,0-3.79,4.06v23l5.91,1V92Z"/><path class="cls-11" d="M302.82,81.3a9.76,9.76,0,0,1,4.51-8.61q4.51-3,12.38-3h7.36V65.09a7.07,7.07,0,0,0-2.18-5.46,8.58,8.58,0,0,0-6.05-2,14.84,14.84,0,0,0-4.73.69,8.88,8.88,0,0,0-3.32,1.89L310,64.33h-5.58V56.72A21.32,21.32,0,0,1,311,53.29,25.9,25.9,0,0,1,319.28,52q6.67,0,10.8,3.41t4.13,9.75V84.05q0,.76,0,1.48t.09,1.44l2.9.38V92h-9.35q-.33-1.6-.51-2.86t-.25-2.54A17.27,17.27,0,0,1,321.95,91a13.2,13.2,0,0,1-6.62,1.76q-6.13,0-9.32-3T302.82,81.3Zm7.14.15a4.88,4.88,0,0,0,1.6,3.93,7.29,7.29,0,0,0,4.82,1.36,12.7,12.7,0,0,0,6.49-1.7,10.57,10.57,0,0,0,4.21-4.1V74.48h-7.61a10.87,10.87,0,0,0-6.94,2A6.11,6.11,0,0,0,310,81.44Z"/><path class="cls-11" d="M343.21,73.83v-.76q0-9.46,4-15.26A13,13,0,0,1,358.55,52a14,14,0,0,1,6.15,1.29A12.7,12.7,0,0,1,369.24,57V41l-5.91-1V35.4h13.05v51l5.91,1V92H370.19l-.58-4.7a12.69,12.69,0,0,1-4.7,4.08,14.24,14.24,0,0,1-6.44,1.38,13.41,13.41,0,0,1-11.22-5.2Q343.21,82.31,343.21,73.83Zm7.14,0q0,5.91,2.43,9.5t7.51,3.59a9.46,9.46,0,0,0,5.37-1.45,11.05,11.05,0,0,0,3.59-4.1V63.17a11,11,0,0,0-3.59-3.92,9.44,9.44,0,0,0-5.29-1.45A8.13,8.13,0,0,0,352.8,62q-2.45,4.24-2.45,11Z"/><path class="cls-11" d="M387.77,73.1v-1.6a20.12,20.12,0,0,1,5-13.94A15.36,15.36,0,0,1,404.56,52q7.9,0,12,4.79t4.08,12.76V74H395.17l-.11.18a15.44,15.44,0,0,0,2.86,9.27,9.13,9.13,0,0,0,7.72,3.63,18,18,0,0,0,6.36-1,14.62,14.62,0,0,0,4.73-2.84l2.79,4.64A17.12,17.12,0,0,1,414,91.31a22.12,22.12,0,0,1-8.32,1.4q-8.19,0-13-5.46T387.77,73.1Zm7.54-4.89.07.18h18.09v-.94a10.89,10.89,0,0,0-2.25-7q-2.25-2.82-6.67-2.82a7.75,7.75,0,0,0-6.13,3A14.27,14.27,0,0,0,395.31,68.21Z"/><path class="cls-11" d="M426.78,58V52.73H433V43.26h7.14v9.46h7.43V58h-7.43V81.9q0,2.76,1.14,3.89a4.12,4.12,0,0,0,3,1.13,15.6,15.6,0,0,0,2.12-.16q1.18-.16,2-.34l1,4.84a9.22,9.22,0,0,1-3,1.06,19,19,0,0,1-3.92.41,9.25,9.25,0,0,1-6.92-2.63Q433,87.46,433,81.84V58Z"/><path class="cls-11" d="M454,58V52.73h6.2V43.26h7.14v9.46h7.43V58h-7.43V81.9q0,2.76,1.14,3.89a4.12,4.12,0,0,0,3,1.13,15.6,15.6,0,0,0,2.12-.16q1.18-.16,2-.34l1,4.84a9.22,9.22,0,0,1-3,1.06,19,19,0,0,1-3.92.41,9.25,9.25,0,0,1-6.92-2.63q-2.58-2.63-2.57-8.25V58Z"/><path class="cls-11" d="M482.07,73.1v-1.6a20.12,20.12,0,0,1,5-13.94A15.36,15.36,0,0,1,498.86,52q7.9,0,12,4.79t4.08,12.76V74H489.47l-.11.18a15.44,15.44,0,0,0,2.86,9.27,9.13,9.13,0,0,0,7.72,3.63,18,18,0,0,0,6.36-1A14.62,14.62,0,0,0,511,83.23l2.79,4.64a17.12,17.12,0,0,1-5.57,3.45,22.12,22.12,0,0,1-8.32,1.4q-8.19,0-13-5.46T482.07,73.1Zm7.54-4.89.07.18h18.09v-.94a10.89,10.89,0,0,0-2.25-7q-2.25-2.82-6.67-2.82a7.75,7.75,0,0,0-6.13,3A14.27,14.27,0,0,0,489.61,68.21Z"/><rect class="cls-11" x="131.88" y="21.05" width="381.82" height="2"/><rect class="cls-11" x="131.88" y="107.66" width="381.82" height="2"/></g></g></svg>